<?xml version="1.0" encoding="UTF-8"?>
<svg id="a" xmlns="http://www.w3.org/2000/svg" width="64" height="64" viewBox="0 0 64 64" fill="#fff" stroke="#fff" strokeLinecap="round" strokeLinejoin="round" strokeWidth="2">
<path d="m15.718,9.349c-2.046-.56-5.56,3.692-6.256,8.043-.436,2.724.052,6.621,1.787,7.149,1.965.598,5.35-3.177,6.256-7.149.742-3.254.027-7.546-1.787-8.043Z" />
<path d="m11,25l22.5,7.5c.778-.49,4.274-2.812,5.5-7.5,1.184-4.527-.561-8.149-1-9-7.333-2.333-14.667-4.667-22-7,.388,1.187,1.39,4.768,0,9-1.311,3.992-3.984,6.23-5,7Z" />
<path d="m33.287,32.433c4.667,1.667,9.333,3.333,14,5,.245-.068,5.558-1.637,7-7,.968-3.601-.196-7.476-3-10-4.489-1.5-8.978-3-13.466-4.5.438,1.045,1.905,4.895.466,9.5-1.263,4.042-4.018,6.275-5,7Z" />
<path d="m19.454,29.555c.181-.595.41-1.059.573-1.354,1.126.333,2.253.666,3.379.998-.459.563-1.127,1.571-1.227,2.905-.206,2.747,2.14,4.953,3.956,5.89,4.313,2.226,9.02-1.041,9.406-1.319,1.629-1.169,2.57-2.588,3.077-3.516.762.234,1.524.469,2.286.703-.178.796-.794,3.062-2.901,4.835-2.979,2.506-6.552,2.021-7.121,1.934.147,2.93.293,5.861.44,8.791-1.319-.117-2.637-.234-3.956-.352-.029-2.901-.059-5.802-.088-8.703-2.22.019-3.679-.753-4.308-1.143-3.29-2.042-4.492-6.464-3.516-9.67Z" fill="none"/>
</svg>
